<svg version="1.1" xmlns="http://www.w3.org/2000/svg" viewBox="0 0 16 16">
<g>
<polygon class="icon-bg" points="0.5,14.6 0.5,7.8 2.5,7.8 2.5,14.4"/>
<path class="icon-bg" d="M9.9,0.6c-0.4,0-0.8,0.1-1.2,0.3C8.6,1,8.5,1.1,8.5,1.2L8,3.8C8,3.9,7.9,4,7.9,4.1L5.5,6.4c0,0-1.1,0.8-1.2,1.5c0,0.1,0,0.2,0,0.2v5.3c0,0.7,0.7,1.3,1.4,1.3h6.4c0.6,0,1.1-0.3,1.3-0.8l2.1-4.6c0.1-0.2,0.1-0.3,0.1-0.5V8.1c0-1-0.8-1.9-1.9-1.9h-2.8c0.2-0.8,0.3-1.6,0.3-2.3C11.3,1.1,10.6,0.6,9.9,0.6z"/>
<g><path class="icon-border" d="M2,8v6H1V8H2 M3,7H0v8h3V7z"/></g>
<path class="icon-border" d="M9.9,1L9.9,1c0,0,0.5,0.3,0.5,2.5c0,0.8-0.1,1.5-0.3,2.2L9.8,7H14c0.6,0,1,0.4,1,1v0.8v0.1l-2.3,4.9c-0.1,0.2-0.3,0.3-0.5,0.3H5.5C5.3,14,5,13.9,5,13.6V7.9C5.2,7.5,5.5,7.2,5.8,7l0.1-0.1l2.5-2.5l0.1-0.1l0.1-0.1C8.7,4,8.8,3.9,8.8,3.7V3.6V3.5L9.2,1C9.5,1,9.7,1,9.9,1 M9.9,0C9.5,0,9,0.1,8.6,0.3C8.5,0.4,8.4,0.5,8.4,0.7L7.9,3.4c0,0.1-0.1,0.2-0.2,0.3L5.3,6.1c0,0-1.1,0.9-1.3,1.6C4,7.8,4,7.9,4,8v5.6C4,14.4,4.7,15,5.5,15h6.8c0.6,0,1.1-0.3,1.4-0.9L16,9.2c0-0.1,0-0.3,0-0.4V8c0-1.1-0.9-2-2-2h-3c0.2-0.8,0.3-1.6,0.4-2.5C11.4,0.6,10.6,0,9.9,0z"/>
</g>
</svg>
