<?xml version="1.0" encoding="utf-8"?>
<!-- Generator: Adobe Illustrator 23.1.0, SVG Export Plug-In . SVG Version: 6.00 Build 0)  -->
<svg version="1.1" id="Calque_1" xmlns="http://www.w3.org/2000/svg" xmlns:xlink="http://www.w3.org/1999/xlink" x="0px" y="0px"
	 viewBox="0 0 160 28" style="enable-background:new 0 0 160 28;" xml:space="preserve">
<style type="text/css">
	.st0{fill:#FFFFFF;}
</style>
<g>
	<g>
		<g>
			<g>
				<path class="st0" d="M9.1,4.2C7.4,5,5.8,6.1,4.4,7.4l0,0c0,0,4.4,4.8,5.5,20.5h3C12.2,9.5,9.1,4.2,9.1,4.2z"/>
			</g>
			<g>
				<path class="st0" d="M15.8,0c-1.7,0-3.3,0.2-4.8,0.7l0,0c0,0,3.1,7.8,3.1,27.2l3.2,0c0-19.3,3.1-27.2,3.1-27.2l0,0
					C19.1,0.2,17.5,0,15.8,0z"/>
			</g>
			<g>
				<g>
					<polygon class="st0" points="0.1,16.3 0.1,16.3 0.1,16.3 					"/>
					<path class="st0" d="M3,10.9c-1.3,1.6-2.3,3.5-3,5.5c0,0,3.7,1.2,6,11.5l2.5,0C7.1,13.8,3,10.9,3,10.9z"/>
				</g>
			</g>
			<g>
				<path class="st0" d="M22.5,4.2c0,0-3.1,5.3-3.8,23.7h3c1.2-15.6,5.5-20.5,5.5-20.5l0,0C25.8,6.1,24.3,5,22.5,4.2z"/>
			</g>
			<g>
				<g>
					<path class="st0" d="M28.6,10.9c0,0-4,3-5.5,17h2.5c2.3-10.3,6-11.5,6-11.5C30.9,14.3,29.9,12.5,28.6,10.9L28.6,10.9z"/>
					<polygon class="st0" points="31.6,16.3 31.6,16.3 31.6,16.3 					"/>
				</g>
			</g>
		</g>
	</g>
	<path class="st0" d="M49.6,17.4c0,2.5-0.3,4.4-0.8,5.8c-0.5,1.4-1.5,2.4-2.7,3.3c-1.1,0.7-2.5,1.1-4.1,1.3
		c-0.7,0.1-1.6,0.1-2.7,0.1h-6.9v-4.5h5.1c3,0,4.9-0.4,5.6-1.1c0.7-0.7,1.1-2.5,1.1-5.5V2.7h5.3V17.4z"/>
	<path class="st0" d="M97.5,27.9h-5.7c-1.4,0-2.4,0-2.9,0c-3.6-0.2-6.1-1.5-7.5-4c-0.8-1.3-1.1-3.7-1.1-7V2.7h5.3v14.1
		c0,1.4,0.1,2.6,0.2,3.6c0.3,1.6,1.3,2.5,3,2.8c0.7,0.1,1.9,0.2,3.5,0.2h5.1V27.9z"/>
	<path class="st0" d="M134,15.8c0,4-1,7-3.1,9.1c-2.1,2.1-5.1,3.1-9,3.1c-4.2,0-7.3-1.1-9.5-3.2c-2.1-2.1-3.2-5.3-3.2-9.4
		c0-8.6,4.1-12.9,12.4-12.9c4.2,0,7.4,1.1,9.4,3.2C133,7.9,134,11.3,134,15.8z M128.1,15.3c0-5.6-2.1-8.5-6.4-8.5
		c-2.3,0-4,0.7-5.1,2c-1,1.3-1.6,3.5-1.6,6.4c0,3,0.5,5.1,1.6,6.5s2.8,2.1,5,2.1C126,23.8,128.1,20.9,128.1,15.3z"/>
	<path class="st0" d="M160.1,20.5c0,1.4-0.3,2.7-1,4c-0.8,1.3-1.7,2.3-3,2.8c-1,0.4-2.9,0.6-5.8,0.6h-12.6v-4.5h11.5
		c1.8,0,3.1-0.2,3.8-0.7c0.8-0.4,1.1-1.2,1.1-2.3c0-2.1-1.4-3.1-4.3-3.1h-4.6c-2.9,0-5-0.6-6.3-1.7c-1.6-1.4-2.4-3.2-2.4-5.6
		c0-1.6,0.4-3,1.3-4.4c0.9-1.3,2.1-2.2,3.5-2.6c0.9-0.2,2.5-0.4,4.9-0.4h12.4v4.5h-11.2c-1.6,0-2.7,0.1-3.3,0.2
		c-1.1,0.3-1.7,1.1-1.7,2.5c0,1.1,0.3,1.8,1,2.3c0.7,0.4,1.9,0.6,3.6,0.6h4c3.4,0,5.8,0.7,7.1,2.1C159.4,16.2,160.1,18.1,160.1,20.5
		z"/>
	<path class="st0" d="M53.7,2.7c0,0.9,0,3.5,0,4.4c1.2,0,11.7,0,11.7,0c2.3,0,3.8,0.4,4.8,1.1c1,0.8,1.5,1.9,1.5,3.8v1.1H62
		c-2.7,0-4.7,0.2-5.8,0.6c-1.3,0.4-2.4,1.3-3.2,2.6c-0.8,1.3-1.2,2.8-1.2,4.5c0,2.7,0.9,4.5,2.8,5.8c0.9,0.7,2.2,1.1,3.8,1.2
		c0,0,4.5,0.1,4.5,0.1s13.6,0,14.8,0c0-1.2,0-14.2,0-14.2l0-1.6c-0.2-3-0.9-5.1-2.2-6.6C74.3,4.1,72.8,3.3,71,3
		c-0.9-0.2-2.8-0.3-5.6-0.3C65.4,2.7,54.8,2.7,53.7,2.7z M58,20.6c0-2,1.2-3.1,3.4-3.1h10.3v5.9h-9.1C58.8,23.4,58,22,58,20.6z"/>
	<rect x="100.1" y="6.4" class="st0" width="5.3" height="21.5"/>
	<polygon class="st0" points="105.5,4.9 105.5,0.8 100.1,0.8 100.1,2.7 100.1,4.9 	"/>
</g>
</svg>
