<?xml version="1.0" encoding="UTF-8"?>
<svg id="Calque_1" xmlns="http://www.w3.org/2000/svg" viewBox="0 0 16 16">
	<defs>
		<style>.cls-1{fill:#fff;}.cls-2{fill:#666666;}</style>
	</defs>
	<polygon class="cls-1" points="13.1 5.8 8.8 1.4 2.9 7.2 4.7 9 9.8 9 13.1 5.8"/>
	<polygon class="cls-1" points="11.2 9 11.2 9 14.5 5.8 8.8 0 14.5 5.8 11.2 9"/>
	<polygon class="cls-2" points="1.5 7.2 3.3 9 3.3 9 1.5 7.2"/>
	<polygon class="cls-2" points="4.7 9 2.9 7.2 8.8 1.4 13.1 5.8 9.8 9 11.2 9 14.5 5.8 8.8 0 1.5 7.2 3.3 9 4.7 9"/>
	<rect class="cls-2" x="9.2" y="8.2" height="5.6"/>
	<rect class="cls-2" x="5.2" y="8.2" height="5.6" transform="translate(-6.2 6.9) rotate(-45)"/>
	<polygon class="cls-2" points="11.2 9 9.8 9 4.7 9 3.3 9 0 9 0 16 16 16 16 9 11.2 9"/>
</svg>